<?xml version="1.0" encoding="UTF-8"?>
<!DOCTYPE svg PUBLIC "-//W3C//DTD SVG 1.1//EN" "http://www.w3.org/Graphics/SVG/1.1/DTD/svg11.dtd">
<!-- Creator: CorelDRAW X7 -->
<svg xmlns="http://www.w3.org/2000/svg" xml:space="preserve" width="215.9mm" height="279.4mm" version="1.1" style="shape-rendering:geometricPrecision; text-rendering:geometricPrecision; image-rendering:optimizeQuality; fill-rule:evenodd; clip-rule:evenodd"
viewBox="0 0 21590 27940"
 xmlns:xlink="http://www.w3.org/1999/xlink">
 <defs>
  <style type="text/css">
   <![CDATA[
    .fil0 {fill:#FF6600}
    .fil1 {fill:white}
   ]]>
  </style>
 </defs>
 <g id="Capa_x0020_1">
  <metadata id="CorelCorpID_0Corel-Layer"/>
  <circle class="fil0" cx="10795" cy="13970" r="7336"/>
  <path class="fil1" d="M10795 10572c-685,0 -1323,202 -1856,551 -889,580 -1489,1566 -1539,2695l0 304 0 5277 1539 0 0 -2582c533,349 1171,551 1856,551 686,0 1325,-203 1860,-553 924,-605 1536,-1650 1538,-2837l0 -5437 -1538 0 0 2584c-535,-350 -1174,-553 -1860,-553zm-1856 3286c58,-975 867,-1748 1856,-1748 1027,0 1860,833 1860,1860 0,1027 -833,1860 -1860,1860 -989,0 -1798,-773 -1856,-1748 -2,-37 -4,-74 -4,-112 0,-38 2,-75 4,-112z"/>
  <path class="fil1" d="M8939 10529l0 -1988 -1539 0 0 3491c304,-532 732,-992 1260,-1336 91,-60 184,-115 279,-167z"/>
  <path class="fil1" d="M12655 17409l0 1990 1538 0 0 -3495c-303,531 -731,992 -1259,1338 -91,60 -184,115 -279,167z"/>
 </g>
</svg>
